<svg width="307" height="68" viewBox="0 0 307 68" fill="none" xmlns="http://www.w3.org/2000/svg">
<g filter="url(#filter0_d_39_9)">
<rect x="5" y="4" width="143" height="54" rx="8" fill="#1055DB"/>
<path d="M37.656 40.304C37.656 40.544 37.136 40.72 36.096 40.832C35.072 40.944 34.096 41 33.168 41C32.24 41 31.64 40.944 31.368 40.832C31.096 40.72 30.96 40.544 30.96 40.304V25.088C30.96 24.672 31.168 24.376 31.584 24.2C32 24.024 32.784 23.936 33.936 23.936H42.84C43.176 23.936 43.344 24.544 43.344 25.76C43.344 26.96 43.264 27.88 43.104 28.52C42.96 29.144 42.768 29.456 42.528 29.456L37.656 29.216V30.848C39.784 30.752 41.208 30.704 41.928 30.704C42.168 30.704 42.328 30.832 42.408 31.088C42.504 31.344 42.552 31.84 42.552 32.576C42.552 33.296 42.472 33.992 42.312 34.664C42.152 35.32 41.928 35.648 41.64 35.648L37.656 35.504V40.304ZM54.0225 33.416V40.424C54.0225 40.6 53.5665 40.744 52.6545 40.856C51.7585 40.952 50.8225 41 49.8465 41C48.8865 41 48.2625 40.96 47.9745 40.88C47.6865 40.784 47.5425 40.632 47.5425 40.424V28.592C47.5425 28.288 47.9825 27.96 48.8625 27.608C49.7585 27.256 50.7265 27.08 51.7665 27.08C52.8225 27.08 53.4145 27.368 53.5425 27.944L53.7825 29.048H53.9505C54.1745 28.44 54.7105 27.928 55.5585 27.512C56.4065 27.08 57.2545 26.864 58.1025 26.864C58.9505 26.864 59.5425 27 59.8785 27.272C60.2305 27.544 60.4065 27.896 60.4065 28.328C60.4065 28.744 60.3745 29.28 60.3105 29.936C60.2465 30.592 60.0865 31.304 59.8305 32.072C59.5905 32.84 59.2705 33.224 58.8705 33.224C58.7105 33.224 58.2065 33.104 57.3585 32.864C56.5105 32.624 55.8065 32.504 55.2465 32.504C54.7025 32.504 54.3585 32.584 54.2145 32.744C54.0865 32.904 54.0225 33.128 54.0225 33.416ZM69.069 41.216C67.277 41.216 66.021 40.752 65.301 39.824C64.597 38.896 64.245 37.28 64.245 34.976V28.448C64.245 28.128 64.717 27.824 65.661 27.536C66.605 27.232 67.597 27.08 68.637 27.08C70.029 27.08 70.725 27.44 70.725 28.16V34.256C70.725 35.472 70.773 36.36 70.869 36.92C70.965 37.464 71.205 37.736 71.589 37.736C72.101 37.736 72.357 37.52 72.357 37.088V28.448C72.357 28.112 72.853 27.8 73.845 27.512C74.837 27.224 75.917 27.08 77.085 27.08C78.253 27.08 78.837 27.392 78.837 28.016V40.376C78.837 40.6 78.333 40.76 77.325 40.856C76.317 40.952 75.325 41 74.349 41C73.373 41 72.877 40.872 72.861 40.616L72.621 39.056H72.429C72.285 39.632 71.997 40.104 71.565 40.472C71.341 40.664 71.005 40.84 70.557 41C70.125 41.144 69.629 41.216 69.069 41.216ZM89.7506 28.592V40.424C89.7506 40.6 89.2866 40.744 88.3586 40.856C87.4466 40.952 86.5026 41 85.5266 41C84.5666 41 83.9426 40.96 83.6546 40.88C83.3826 40.784 83.2466 40.632 83.2466 40.424V29.024C83.2466 28.672 83.6946 28.328 84.5906 27.992C85.5026 27.64 86.4946 27.464 87.5666 27.464C89.0226 27.464 89.7506 27.84 89.7506 28.592ZM86.4866 22.28C87.5426 22.28 88.3666 22.44 88.9586 22.76C89.5666 23.064 89.8706 23.624 89.8706 24.44C89.8706 25.88 88.7506 26.6 86.5106 26.6C84.2706 26.6 83.1506 25.88 83.1506 24.44C83.1506 23 84.2626 22.28 86.4866 22.28ZM103.613 40.784C103.325 41.056 102.669 41.192 101.645 41.192C100.621 41.192 99.7733 41.128 99.1013 41C98.4293 40.856 97.7893 40.584 97.1813 40.184C96.0133 39.4 95.4293 37.768 95.4293 35.288V31.544H94.2293C94.0533 31.544 93.9013 31.36 93.7733 30.992C93.6453 30.624 93.5813 30.12 93.5813 29.48C93.5813 28.84 93.6773 28.28 93.8693 27.8C94.0773 27.304 94.3413 27.056 94.6613 27.056H95.4293V24.152C95.4293 23.656 95.9093 23.256 96.8693 22.952C97.8453 22.648 98.7973 22.496 99.7253 22.496C101.181 22.496 101.909 22.856 101.909 23.576V27.056H103.685C104.101 27.056 104.309 27.656 104.309 28.856C104.309 29.64 104.213 30.288 104.021 30.8C103.845 31.296 103.613 31.544 103.325 31.544H101.909V35.936C101.909 36.368 102.093 36.68 102.461 36.872C102.829 37.048 103.149 37.136 103.421 37.136C103.709 37.136 103.885 37.272 103.949 37.544C104.013 37.816 104.045 38.224 104.045 38.768C104.045 39.84 103.901 40.512 103.613 40.784ZM114.927 41.216C112.271 41.216 110.327 40.96 109.095 40.448C108.471 40.176 108.159 39.912 108.159 39.656C108.159 39 108.351 38.232 108.735 37.352C109.119 36.472 109.455 36.032 109.743 36.032C109.903 36.032 110.439 36.208 111.351 36.56C112.279 36.912 113.055 37.088 113.679 37.088C114.319 37.088 114.735 37.048 114.927 36.968C115.135 36.888 115.239 36.736 115.239 36.512C115.239 36.272 115.079 36.088 114.759 35.96C114.439 35.816 114.039 35.72 113.559 35.672C113.079 35.624 112.559 35.528 111.999 35.384C111.455 35.24 110.943 35.056 110.463 34.832C109.983 34.608 109.583 34.24 109.263 33.728C108.943 33.2 108.783 32.64 108.783 32.048C108.783 31.44 108.799 30.992 108.831 30.704C108.863 30.4 108.991 29.984 109.215 29.456C109.455 28.912 109.783 28.472 110.199 28.136C110.631 27.8 111.287 27.496 112.167 27.224C113.063 26.952 114.063 26.816 115.167 26.816C116.271 26.816 117.191 26.856 117.927 26.936C118.679 27 119.263 27.088 119.679 27.2C120.111 27.312 120.463 27.44 120.735 27.584C121.199 27.824 121.431 28.088 121.431 28.376C121.431 29 121.207 29.72 120.759 30.536C120.311 31.352 119.951 31.76 119.679 31.76C119.423 31.76 118.855 31.624 117.975 31.352C117.095 31.064 116.447 30.92 116.031 30.92C115.359 30.92 115.023 31.112 115.023 31.496C115.023 31.736 115.247 31.92 115.695 32.048C116.159 32.16 116.711 32.28 117.351 32.408C117.991 32.536 118.631 32.72 119.271 32.96C119.927 33.184 120.479 33.6 120.927 34.208C121.391 34.816 121.623 35.584 121.623 36.512C121.623 39.648 119.391 41.216 114.927 41.216Z" fill="white"/>
</g>
<path d="M173.568 41.656C172.928 42.1253 172.032 42.52 170.88 42.84C169.749 43.1387 168.277 43.288 166.464 43.288C164.672 43.288 162.965 43.1387 161.344 42.84C159.723 42.5413 158.56 42.2107 157.856 41.848C157.152 41.4853 156.8 41.1333 156.8 40.792C156.8 39.5973 156.971 38.36 157.312 37.08C157.653 35.7787 158.059 35.128 158.528 35.128C158.613 35.128 159.499 35.416 161.184 35.992C162.869 36.568 164.139 36.856 164.992 36.856C165.845 36.856 166.4 36.7707 166.656 36.6C166.912 36.408 167.04 36.1413 167.04 35.8C167.04 35.4587 166.805 35.16 166.336 34.904C165.867 34.6267 165.28 34.392 164.576 34.2C163.872 33.9867 163.104 33.688 162.272 33.304C161.461 32.92 160.704 32.4933 160 32.024C159.296 31.5547 158.709 30.8933 158.24 30.04C157.771 29.1653 157.536 28.1733 157.536 27.064C157.536 22.328 160.363 19.96 166.016 19.96C168.128 19.96 169.952 20.0987 171.488 20.376C173.024 20.632 174.101 20.9307 174.72 21.272C175.36 21.592 175.68 21.912 175.68 22.232C175.68 23.3413 175.413 24.536 174.88 25.816C174.368 27.096 173.867 27.736 173.376 27.736C173.291 27.736 173.013 27.64 172.544 27.448C171.136 26.8293 169.963 26.52 169.024 26.52C168.107 26.52 167.477 26.6053 167.136 26.776C166.816 26.9467 166.656 27.2133 166.656 27.576C166.656 27.9173 166.891 28.2053 167.36 28.44C167.829 28.6533 168.405 28.856 169.088 29.048C169.792 29.2187 170.549 29.496 171.36 29.88C172.192 30.2427 172.96 30.68 173.664 31.192C174.368 31.6827 174.955 32.3867 175.424 33.304C175.893 34.2213 176.128 35.288 176.128 36.504C176.128 37.784 175.797 38.9467 175.136 39.992C174.731 40.632 174.208 41.1867 173.568 41.656ZM185.706 42.456C185.194 42.2213 184.639 41.8693 184.042 41.4C183.466 40.9307 182.986 40.376 182.602 39.736C181.706 38.2 181.258 36.1947 181.258 33.72C181.258 32.184 181.503 30.8187 181.994 29.624C182.484 28.408 183.082 27.4693 183.786 26.808C184.49 26.1467 185.3 25.6027 186.218 25.176C187.69 24.4933 189.162 24.152 190.634 24.152C193.108 24.152 194.826 24.344 195.786 24.728C196.767 25.112 197.258 25.7627 197.258 26.68C197.258 27.5973 197.087 28.5787 196.746 29.624C196.426 30.648 195.999 31.16 195.466 31.16C195.295 31.16 194.772 30.9787 193.898 30.616C193.044 30.2533 192.298 30.072 191.658 30.072C191.039 30.072 190.559 30.328 190.218 30.84C189.898 31.3307 189.738 32.3013 189.738 33.752C189.738 35.1813 189.887 36.1627 190.186 36.696C190.484 37.208 190.943 37.464 191.562 37.464C192.202 37.464 192.991 37.2507 193.93 36.824C194.868 36.3973 195.391 36.184 195.498 36.184C195.903 36.184 196.287 36.664 196.65 37.624C197.034 38.584 197.226 39.4373 197.226 40.184C197.226 41.336 196.628 42.1467 195.434 42.616C194.239 43.064 192.618 43.288 190.57 43.288C188.543 43.288 186.922 43.0107 185.706 42.456ZM211.491 26.456V42.232C211.491 42.4667 210.873 42.6587 209.635 42.808C208.419 42.936 207.161 43 205.859 43C204.579 43 203.747 42.9467 203.363 42.84C203.001 42.712 202.819 42.5093 202.819 42.232V27.032C202.819 26.5627 203.417 26.104 204.611 25.656C205.827 25.1867 207.15 24.952 208.579 24.952C210.521 24.952 211.491 25.4533 211.491 26.456ZM207.139 18.04C208.547 18.04 209.646 18.2533 210.435 18.68C211.246 19.0853 211.651 19.832 211.651 20.92C211.651 22.84 210.158 23.8 207.171 23.8C204.185 23.8 202.691 22.84 202.691 20.92C202.691 19 204.174 18.04 207.139 18.04ZM225.815 35.768C225.815 37.1547 226.476 37.848 227.799 37.848C228.567 37.848 229.569 37.592 230.807 37.08C232.044 36.5467 232.695 36.28 232.759 36.28C233.164 36.28 233.697 36.888 234.359 38.104C235.02 39.32 235.351 40.216 235.351 40.792C235.351 41.624 234.497 42.2533 232.791 42.68C231.084 43.1067 229.409 43.32 227.767 43.32C226.145 43.32 224.78 43.192 223.671 42.936C222.583 42.68 221.687 42.36 220.983 41.976C220.3 41.5707 219.692 41.08 219.159 40.504C218.647 39.928 218.263 39.384 218.007 38.872C217.751 38.3387 217.548 37.752 217.399 37.112C217.185 36.1733 217.079 35.2027 217.079 34.2C217.079 30.3173 218.092 27.64 220.119 26.168C221.121 25.4213 222.241 24.8987 223.479 24.6C224.716 24.3013 226.177 24.152 227.863 24.152C233.26 24.152 235.959 26.0293 235.959 29.784C235.959 33.7733 232.929 35.768 226.871 35.768H225.815ZM225.751 31.096V33.208C226.369 33.208 226.871 32.9627 227.255 32.472C227.66 31.9813 227.863 31.384 227.863 30.68C227.863 29.4 227.532 28.76 226.871 28.76C226.124 28.76 225.751 29.5387 225.751 31.096ZM260.684 32.376V42.232C260.684 42.4667 260.076 42.6587 258.86 42.808C257.644 42.936 256.385 43 255.084 43C253.804 43 252.972 42.9467 252.588 42.84C252.225 42.712 252.044 42.5093 252.044 42.232V32.056C252.044 31.096 252.001 30.4667 251.916 30.168C251.852 29.8693 251.788 29.6027 251.724 29.368C251.574 28.9627 251.308 28.76 250.924 28.76C250.326 28.76 250.028 29.048 250.028 29.624V42.232C250.028 42.4667 249.42 42.6587 248.204 42.808C247.009 42.936 245.761 43 244.46 43C243.18 43 242.348 42.9467 241.964 42.84C241.58 42.712 241.388 42.5093 241.388 42.232V26.456C241.388 26.008 241.996 25.56 243.212 25.112C244.449 24.664 245.75 24.44 247.116 24.44C248.481 24.44 249.249 24.8347 249.42 25.624L249.708 27.032H249.932C250.55 25.7947 251.617 24.9307 253.132 24.44C253.75 24.248 254.433 24.152 255.18 24.152C257.334 24.152 258.785 24.8027 259.532 26.104C260.3 27.384 260.684 29.4747 260.684 32.376ZM270.567 42.456C270.055 42.2213 269.5 41.8693 268.903 41.4C268.327 40.9307 267.847 40.376 267.463 39.736C266.567 38.2 266.119 36.1947 266.119 33.72C266.119 32.184 266.364 30.8187 266.855 29.624C267.345 28.408 267.943 27.4693 268.647 26.808C269.351 26.1467 270.161 25.6027 271.079 25.176C272.551 24.4933 274.023 24.152 275.495 24.152C277.969 24.152 279.687 24.344 280.647 24.728C281.628 25.112 282.119 25.7627 282.119 26.68C282.119 27.5973 281.948 28.5787 281.607 29.624C281.287 30.648 280.86 31.16 280.327 31.16C280.156 31.16 279.633 30.9787 278.759 30.616C277.905 30.2533 277.159 30.072 276.519 30.072C275.9 30.072 275.42 30.328 275.079 30.84C274.759 31.3307 274.599 32.3013 274.599 33.752C274.599 35.1813 274.748 36.1627 275.047 36.696C275.345 37.208 275.804 37.464 276.423 37.464C277.063 37.464 277.852 37.2507 278.791 36.824C279.729 36.3973 280.252 36.184 280.359 36.184C280.764 36.184 281.148 36.664 281.511 37.624C281.895 38.584 282.087 39.4373 282.087 40.184C282.087 41.336 281.489 42.1467 280.295 42.616C279.1 43.064 277.479 43.288 275.431 43.288C273.404 43.288 271.783 43.0107 270.567 42.456ZM295.968 35.768C295.968 37.1547 296.63 37.848 297.952 37.848C298.72 37.848 299.723 37.592 300.96 37.08C302.198 36.5467 302.848 36.28 302.912 36.28C303.318 36.28 303.851 36.888 304.512 38.104C305.174 39.32 305.504 40.216 305.504 40.792C305.504 41.624 304.651 42.2533 302.944 42.68C301.238 43.1067 299.563 43.32 297.92 43.32C296.299 43.32 294.934 43.192 293.824 42.936C292.736 42.68 291.84 42.36 291.136 41.976C290.454 41.5707 289.846 41.08 289.312 40.504C288.8 39.928 288.416 39.384 288.16 38.872C287.904 38.3387 287.702 37.752 287.552 37.112C287.339 36.1733 287.232 35.2027 287.232 34.2C287.232 30.3173 288.246 27.64 290.272 26.168C291.275 25.4213 292.395 24.8987 293.632 24.6C294.87 24.3013 296.331 24.152 298.016 24.152C303.414 24.152 306.112 26.0293 306.112 29.784C306.112 33.7733 303.083 35.768 297.024 35.768H295.968ZM295.904 31.096V33.208C296.523 33.208 297.024 32.9627 297.408 32.472C297.814 31.9813 298.016 31.384 298.016 30.68C298.016 29.4 297.686 28.76 297.024 28.76C296.278 28.76 295.904 29.5387 295.904 31.096Z" fill="#1055DB"/>
<defs>
<filter id="filter0_d_39_9" x="0" y="0" width="157" height="68" filterUnits="userSpaceOnUse" color-interpolation-filters="sRGB">
<feFlood flood-opacity="0" result="BackgroundImageFix"/>
<feColorMatrix in="SourceAlpha" type="matrix" values="0 0 0 0 0 0 0 0 0 0 0 0 0 0 0 0 0 0 127 0" result="hardAlpha"/>
<feOffset dx="2" dy="3"/>
<feGaussianBlur stdDeviation="3.5"/>
<feComposite in2="hardAlpha" operator="out"/>
<feColorMatrix type="matrix" values="0 0 0 0 0.064375 0 0 0 0 0.334321 0 0 0 0 0.858333 0 0 0 0.25 0"/>
<feBlend mode="normal" in2="BackgroundImageFix" result="effect1_dropShadow_39_9"/>
<feBlend mode="normal" in="SourceGraphic" in2="effect1_dropShadow_39_9" result="shape"/>
</filter>
</defs>
</svg>
